<mxfile host="drawio-plugin" modified="2023-12-05T14:15:22.189Z" agent="5.0 (Windows NT 10.0; Win64; x64) AppleWebKit/537.36 (KHTML, like Gecko) Chrome/111.0.0.0 Safari/537.36" etag="pETPhMeggFZJGFkuZdUu" version="20.5.3" type="embed"><diagram name="Sida-1" id="79Vit4rN3zPTbxwFqr4g"><mxGraphModel dx="1391" dy="461" grid="0" gridSize="10" guides="1" tooltips="1" connect="1" arrows="1" fold="1" page="0" pageScale="1" pageWidth="827" pageHeight="1169" math="0" shadow="0"><root><mxCell id="0"/><mxCell id="1" parent="0"/><mxCell id="8SbexDcq0FFK5E7nXvhd-30" style="edgeStyle=orthogonalEdgeStyle;rounded=0;orthogonalLoop=1;jettySize=auto;html=1;endSize=12;endArrow=block;endFill=0;" parent="1" source="8SbexDcq0FFK5E7nXvhd-9" target="8SbexDcq0FFK5E7nXvhd-25" edge="1"><mxGeometry relative="1" as="geometry"><Array as="points"><mxPoint x="1685" y="195"/></Array></mxGeometry></mxCell><mxCell id="ZbwaUMLBzmyROPCRSQ0a-28" style="edgeStyle=orthogonalEdgeStyle;rounded=0;orthogonalLoop=1;jettySize=auto;html=1;endSize=12;endArrow=open;endFill=0;" parent="1" source="8SbexDcq0FFK5E7nXvhd-9" target="ZbwaUMLBzmyROPCRSQ0a-23" edge="1"><mxGeometry relative="1" as="geometry"/></mxCell><mxCell id="ZbwaUMLBzmyROPCRSQ0a-29" style="edgeStyle=orthogonalEdgeStyle;rounded=0;orthogonalLoop=1;jettySize=auto;html=1;endSize=12;endArrow=open;endFill=0;" parent="1" source="8SbexDcq0FFK5E7nXvhd-9" target="ZbwaUMLBzmyROPCRSQ0a-14" edge="1"><mxGeometry relative="1" as="geometry"><Array as="points"><mxPoint x="1685" y="640"/><mxPoint x="1685" y="640"/></Array></mxGeometry></mxCell><mxCell id="8SbexDcq0FFK5E7nXvhd-9" value="Storage" style="swimlane;fontStyle=1;align=center;verticalAlign=top;childLayout=stackLayout;horizontal=1;startSize=26;horizontalStack=0;resizeParent=1;resizeParentMax=0;resizeLast=0;collapsible=1;marginBottom=0;whiteSpace=wrap;html=1;labelBackgroundColor=none;" parent="1" vertex="1"><mxGeometry x="1590" y="370" width="190" height="150" as="geometry"><mxRectangle x="1145" y="437" width="90" height="30" as="alternateBounds"/></mxGeometry></mxCell><mxCell id="8SbexDcq0FFK5E7nXvhd-10" value="- maxLoadAmount: int&lt;br&gt;- storageContents: ArrayList&amp;lt;T&amp;gt;" style="text;align=left;verticalAlign=top;spacingLeft=4;spacingRight=4;overflow=hidden;rotatable=0;points=[[0,0.5],[1,0.5]];portConstraint=eastwest;whiteSpace=wrap;html=1;labelBackgroundColor=none;" parent="8SbexDcq0FFK5E7nXvhd-9" vertex="1"><mxGeometry y="26" width="190" height="54" as="geometry"/></mxCell><mxCell id="8SbexDcq0FFK5E7nXvhd-11" value="" style="line;strokeWidth=1;align=left;verticalAlign=middle;spacingTop=-1;spacingLeft=3;spacingRight=3;rotatable=0;labelPosition=right;points=[];portConstraint=eastwest;labelBackgroundColor=none;" parent="8SbexDcq0FFK5E7nXvhd-9" vertex="1"><mxGeometry y="80" width="190" height="8" as="geometry"/></mxCell><mxCell id="8SbexDcq0FFK5E7nXvhd-12" value="+ storage(maxLoadingAmount)&lt;br&gt;+ loadCar(): boolean&lt;br&gt;+ unloadCar(): boolean" style="text;align=left;verticalAlign=top;spacingLeft=4;spacingRight=4;overflow=hidden;rotatable=0;points=[[0,0.5],[1,0.5]];portConstraint=eastwest;whiteSpace=wrap;html=1;labelBackgroundColor=none;" parent="8SbexDcq0FFK5E7nXvhd-9" vertex="1"><mxGeometry y="88" width="190" height="62" as="geometry"/></mxCell><mxCell id="8SbexDcq0FFK5E7nXvhd-19" value="&lt;b&gt;Point2D&lt;/b&gt;" style="html=1;whiteSpace=wrap;labelBackgroundColor=none;" parent="1" vertex="1"><mxGeometry x="1440" y="40" width="110" height="50" as="geometry"/></mxCell><mxCell id="8SbexDcq0FFK5E7nXvhd-25" value="Object" style="swimlane;fontStyle=1;align=center;verticalAlign=top;childLayout=stackLayout;horizontal=1;startSize=26;horizontalStack=0;resizeParent=1;resizeParentMax=0;resizeLast=0;collapsible=1;marginBottom=0;whiteSpace=wrap;html=1;labelBackgroundColor=none;" parent="1" vertex="1"><mxGeometry x="1128" y="130" width="226" height="130" as="geometry"><mxRectangle x="1145" y="437" width="90" height="30" as="alternateBounds"/></mxGeometry></mxCell><mxCell id="8SbexDcq0FFK5E7nXvhd-26" value="- position: Point2D&amp;nbsp;" style="text;align=left;verticalAlign=top;spacingLeft=4;spacingRight=4;overflow=hidden;rotatable=0;points=[[0,0.5],[1,0.5]];portConstraint=eastwest;whiteSpace=wrap;html=1;labelBackgroundColor=none;" parent="8SbexDcq0FFK5E7nXvhd-25" vertex="1"><mxGeometry y="26" width="226" height="34" as="geometry"/></mxCell><mxCell id="8SbexDcq0FFK5E7nXvhd-27" value="" style="line;strokeWidth=1;align=left;verticalAlign=middle;spacingTop=-1;spacingLeft=3;spacingRight=3;rotatable=0;labelPosition=right;points=[];portConstraint=eastwest;labelBackgroundColor=none;" parent="8SbexDcq0FFK5E7nXvhd-25" vertex="1"><mxGeometry y="60" width="226" height="8" as="geometry"/></mxCell><mxCell id="8SbexDcq0FFK5E7nXvhd-28" value="+ setPosition(positionX, positionY): void&lt;br&gt;+ getPositionX(): void&lt;br&gt;+ getPositionY(): void" style="text;align=left;verticalAlign=top;spacingLeft=4;spacingRight=4;overflow=hidden;rotatable=0;points=[[0,0.5],[1,0.5]];portConstraint=eastwest;whiteSpace=wrap;html=1;labelBackgroundColor=none;" parent="8SbexDcq0FFK5E7nXvhd-25" vertex="1"><mxGeometry y="68" width="226" height="62" as="geometry"/></mxCell><mxCell id="8SbexDcq0FFK5E7nXvhd-29" style="edgeStyle=orthogonalEdgeStyle;rounded=0;orthogonalLoop=1;jettySize=auto;html=1;entryX=0;entryY=0.5;entryDx=0;entryDy=0;endArrow=open;endFill=0;endSize=12;" parent="1" source="8SbexDcq0FFK5E7nXvhd-26" target="8SbexDcq0FFK5E7nXvhd-19" edge="1"><mxGeometry relative="1" as="geometry"/></mxCell><mxCell id="8SbexDcq0FFK5E7nXvhd-31" value="«interface»&lt;br&gt;&lt;b&gt;Movable&lt;/b&gt;" style="html=1;whiteSpace=wrap;labelBackgroundColor=none;" parent="1" vertex="1"><mxGeometry x="1354" y="300" width="110" height="50" as="geometry"/></mxCell><mxCell id="8SbexDcq0FFK5E7nXvhd-36" style="edgeStyle=orthogonalEdgeStyle;rounded=0;orthogonalLoop=1;jettySize=auto;html=1;endSize=12;endArrow=block;endFill=0;" parent="1" source="8SbexDcq0FFK5E7nXvhd-32" target="8SbexDcq0FFK5E7nXvhd-25" edge="1"><mxGeometry relative="1" as="geometry"/></mxCell><mxCell id="8SbexDcq0FFK5E7nXvhd-37" style="edgeStyle=orthogonalEdgeStyle;rounded=0;orthogonalLoop=1;jettySize=auto;html=1;entryX=0;entryY=0.5;entryDx=0;entryDy=0;endSize=12;endArrow=open;endFill=0;dashed=1;dashPattern=8 8;" parent="1" source="8SbexDcq0FFK5E7nXvhd-32" target="8SbexDcq0FFK5E7nXvhd-31" edge="1"><mxGeometry relative="1" as="geometry"><Array as="points"><mxPoint x="1280" y="325"/></Array></mxGeometry></mxCell><mxCell id="8SbexDcq0FFK5E7nXvhd-32" value="{Cars}" style="swimlane;fontStyle=1;align=center;verticalAlign=top;childLayout=stackLayout;horizontal=1;startSize=26;horizontalStack=0;resizeParent=1;resizeLast=0;collapsible=1;marginBottom=0;rounded=0;shadow=0;strokeWidth=1;labelBackgroundColor=none;" parent="1" vertex="1"><mxGeometry x="1161" y="390" width="160" height="200" as="geometry"><mxRectangle x="230" y="140" width="160" height="26" as="alternateBounds"/></mxGeometry></mxCell><mxCell id="8SbexDcq0FFK5E7nXvhd-33" value="- currentSpeed: double&#10;- direction: enum&#10;+ isLoaded: boolean" style="text;align=left;verticalAlign=top;spacingLeft=4;spacingRight=4;overflow=hidden;rotatable=0;points=[[0,0.5],[1,0.5]];portConstraint=eastwest;labelBackgroundColor=none;" parent="8SbexDcq0FFK5E7nXvhd-32" vertex="1"><mxGeometry y="26" width="160" height="54" as="geometry"/></mxCell><mxCell id="8SbexDcq0FFK5E7nXvhd-34" value="" style="line;html=1;strokeWidth=1;align=left;verticalAlign=middle;spacingTop=-1;spacingLeft=3;spacingRight=3;rotatable=0;labelPosition=right;points=[];portConstraint=eastwest;labelBackgroundColor=none;" parent="8SbexDcq0FFK5E7nXvhd-32" vertex="1"><mxGeometry y="80" width="160" height="8" as="geometry"/></mxCell><mxCell id="8SbexDcq0FFK5E7nXvhd-35" value="+ move(): void&#10;+ gas(amount): void&#10;+ brake(amount): void&#10;+ startEngine(): void&#10;+ stopEngine(): void&#10;+ incrementSpeed: void&#10;+ decrementSpeed: void" style="text;align=left;verticalAlign=top;spacingLeft=4;spacingRight=4;overflow=hidden;rotatable=0;points=[[0,0.5],[1,0.5]];portConstraint=eastwest;labelBackgroundColor=none;spacing=2;fontSize=12;whiteSpace=wrap;" parent="8SbexDcq0FFK5E7nXvhd-32" vertex="1"><mxGeometry y="88" width="160" height="112" as="geometry"/></mxCell><mxCell id="ZbwaUMLBzmyROPCRSQ0a-18" style="edgeStyle=orthogonalEdgeStyle;rounded=0;orthogonalLoop=1;jettySize=auto;html=1;endSize=12;endArrow=block;endFill=0;" parent="1" source="ZbwaUMLBzmyROPCRSQ0a-1" target="8SbexDcq0FFK5E7nXvhd-32" edge="1"><mxGeometry relative="1" as="geometry"><Array as="points"><mxPoint x="985" y="630"/><mxPoint x="1241" y="630"/></Array></mxGeometry></mxCell><mxCell id="ZbwaUMLBzmyROPCRSQ0a-1" value="Volvo240" style="swimlane;fontStyle=1;align=center;verticalAlign=top;childLayout=stackLayout;horizontal=1;startSize=26;horizontalStack=0;resizeParent=1;resizeParentMax=0;resizeLast=0;collapsible=1;marginBottom=0;whiteSpace=wrap;html=1;labelBackgroundColor=none;" parent="1" vertex="1"><mxGeometry x="890" y="690" width="190" height="110" as="geometry"><mxRectangle x="1145" y="437" width="90" height="30" as="alternateBounds"/></mxGeometry></mxCell><mxCell id="ZbwaUMLBzmyROPCRSQ0a-2" value="- trimfactor: double" style="text;align=left;verticalAlign=top;spacingLeft=4;spacingRight=4;overflow=hidden;rotatable=0;points=[[0,0.5],[1,0.5]];portConstraint=eastwest;whiteSpace=wrap;html=1;labelBackgroundColor=none;" parent="ZbwaUMLBzmyROPCRSQ0a-1" vertex="1"><mxGeometry y="26" width="190" height="34" as="geometry"/></mxCell><mxCell id="ZbwaUMLBzmyROPCRSQ0a-3" value="" style="line;strokeWidth=1;align=left;verticalAlign=middle;spacingTop=-1;spacingLeft=3;spacingRight=3;rotatable=0;labelPosition=right;points=[];portConstraint=eastwest;labelBackgroundColor=none;" parent="ZbwaUMLBzmyROPCRSQ0a-1" vertex="1"><mxGeometry y="60" width="190" height="8" as="geometry"/></mxCell><mxCell id="ZbwaUMLBzmyROPCRSQ0a-4" value="+ Volvo240():&amp;nbsp;&lt;br&gt;+ speedfactor(): double" style="text;align=left;verticalAlign=top;spacingLeft=4;spacingRight=4;overflow=hidden;rotatable=0;points=[[0,0.5],[1,0.5]];portConstraint=eastwest;whiteSpace=wrap;html=1;labelBackgroundColor=none;" parent="ZbwaUMLBzmyROPCRSQ0a-1" vertex="1"><mxGeometry y="68" width="190" height="42" as="geometry"/></mxCell><mxCell id="ZbwaUMLBzmyROPCRSQ0a-19" style="edgeStyle=orthogonalEdgeStyle;rounded=0;orthogonalLoop=1;jettySize=auto;html=1;endSize=12;endArrow=block;endFill=0;" parent="1" source="ZbwaUMLBzmyROPCRSQ0a-5" target="8SbexDcq0FFK5E7nXvhd-32" edge="1"><mxGeometry relative="1" as="geometry"/></mxCell><mxCell id="ZbwaUMLBzmyROPCRSQ0a-5" value="Saab95" style="swimlane;fontStyle=1;align=center;verticalAlign=top;childLayout=stackLayout;horizontal=1;startSize=26;horizontalStack=0;resizeParent=1;resizeParentMax=0;resizeLast=0;collapsible=1;marginBottom=0;whiteSpace=wrap;html=1;labelBackgroundColor=none;" parent="1" vertex="1"><mxGeometry x="1110" y="690" width="190" height="140" as="geometry"><mxRectangle x="1145" y="437" width="90" height="30" as="alternateBounds"/></mxGeometry></mxCell><mxCell id="ZbwaUMLBzmyROPCRSQ0a-6" value="- turboOn: boolean" style="text;align=left;verticalAlign=top;spacingLeft=4;spacingRight=4;overflow=hidden;rotatable=0;points=[[0,0.5],[1,0.5]];portConstraint=eastwest;whiteSpace=wrap;html=1;labelBackgroundColor=none;" parent="ZbwaUMLBzmyROPCRSQ0a-5" vertex="1"><mxGeometry y="26" width="190" height="34" as="geometry"/></mxCell><mxCell id="ZbwaUMLBzmyROPCRSQ0a-7" value="" style="line;strokeWidth=1;align=left;verticalAlign=middle;spacingTop=-1;spacingLeft=3;spacingRight=3;rotatable=0;labelPosition=right;points=[];portConstraint=eastwest;labelBackgroundColor=none;" parent="ZbwaUMLBzmyROPCRSQ0a-5" vertex="1"><mxGeometry y="60" width="190" height="8" as="geometry"/></mxCell><mxCell id="ZbwaUMLBzmyROPCRSQ0a-8" value="+ Saab95():&amp;nbsp;&lt;br&gt;+ speedfactor(): double&lt;br&gt;+ setTurboOn(): void&lt;br&gt;+ setTurboOff(): void" style="text;align=left;verticalAlign=top;spacingLeft=4;spacingRight=4;overflow=hidden;rotatable=0;points=[[0,0.5],[1,0.5]];portConstraint=eastwest;whiteSpace=wrap;html=1;labelBackgroundColor=none;" parent="ZbwaUMLBzmyROPCRSQ0a-5" vertex="1"><mxGeometry y="68" width="190" height="72" as="geometry"/></mxCell><mxCell id="ZbwaUMLBzmyROPCRSQ0a-20" style="edgeStyle=orthogonalEdgeStyle;rounded=0;orthogonalLoop=1;jettySize=auto;html=1;endSize=12;endArrow=block;endFill=0;" parent="1" source="ZbwaUMLBzmyROPCRSQ0a-10" target="8SbexDcq0FFK5E7nXvhd-32" edge="1"><mxGeometry relative="1" as="geometry"/></mxCell><mxCell id="ZbwaUMLBzmyROPCRSQ0a-34" style="edgeStyle=orthogonalEdgeStyle;rounded=0;orthogonalLoop=1;jettySize=auto;html=1;endSize=12;endArrow=open;endFill=0;" parent="1" source="ZbwaUMLBzmyROPCRSQ0a-10" target="ZbwaUMLBzmyROPCRSQ0a-30" edge="1"><mxGeometry relative="1" as="geometry"><Array as="points"><mxPoint x="1465" y="670"/><mxPoint x="1465" y="670"/></Array></mxGeometry></mxCell><mxCell id="ZbwaUMLBzmyROPCRSQ0a-10" value="Scania" style="swimlane;fontStyle=1;align=center;verticalAlign=top;childLayout=stackLayout;horizontal=1;startSize=26;horizontalStack=0;resizeParent=1;resizeParentMax=0;resizeLast=0;collapsible=1;marginBottom=0;whiteSpace=wrap;html=1;labelBackgroundColor=none;" parent="1" vertex="1"><mxGeometry x="1321" y="690" width="190" height="140" as="geometry"><mxRectangle x="1145" y="437" width="90" height="30" as="alternateBounds"/></mxGeometry></mxCell><mxCell id="ZbwaUMLBzmyROPCRSQ0a-11" value="- ramp: Ramp" style="text;align=left;verticalAlign=top;spacingLeft=4;spacingRight=4;overflow=hidden;rotatable=0;points=[[0,0.5],[1,0.5]];portConstraint=eastwest;whiteSpace=wrap;html=1;labelBackgroundColor=none;" parent="ZbwaUMLBzmyROPCRSQ0a-10" vertex="1"><mxGeometry y="26" width="190" height="34" as="geometry"/></mxCell><mxCell id="ZbwaUMLBzmyROPCRSQ0a-12" value="" style="line;strokeWidth=1;align=left;verticalAlign=middle;spacingTop=-1;spacingLeft=3;spacingRight=3;rotatable=0;labelPosition=right;points=[];portConstraint=eastwest;labelBackgroundColor=none;" parent="ZbwaUMLBzmyROPCRSQ0a-10" vertex="1"><mxGeometry y="60" width="190" height="8" as="geometry"/></mxCell><mxCell id="ZbwaUMLBzmyROPCRSQ0a-13" value="+ Scania():&amp;nbsp;&lt;br&gt;+ speedfactor(): double&lt;br&gt;+ raiseBedAngle: void&lt;br&gt;+ lowerBedAngle: void" style="text;align=left;verticalAlign=top;spacingLeft=4;spacingRight=4;overflow=hidden;rotatable=0;points=[[0,0.5],[1,0.5]];portConstraint=eastwest;whiteSpace=wrap;html=1;labelBackgroundColor=none;" parent="ZbwaUMLBzmyROPCRSQ0a-10" vertex="1"><mxGeometry y="68" width="190" height="72" as="geometry"/></mxCell><mxCell id="ZbwaUMLBzmyROPCRSQ0a-21" style="edgeStyle=orthogonalEdgeStyle;rounded=0;orthogonalLoop=1;jettySize=auto;html=1;endSize=12;endArrow=block;endFill=0;" parent="1" source="ZbwaUMLBzmyROPCRSQ0a-14" target="8SbexDcq0FFK5E7nXvhd-32" edge="1"><mxGeometry relative="1" as="geometry"><Array as="points"><mxPoint x="1625" y="630"/><mxPoint x="1241" y="630"/></Array></mxGeometry></mxCell><mxCell id="ZbwaUMLBzmyROPCRSQ0a-35" style="edgeStyle=orthogonalEdgeStyle;rounded=0;orthogonalLoop=1;jettySize=auto;html=1;endSize=12;endArrow=open;endFill=0;" parent="1" source="ZbwaUMLBzmyROPCRSQ0a-14" target="ZbwaUMLBzmyROPCRSQ0a-30" edge="1"><mxGeometry relative="1" as="geometry"><Array as="points"><mxPoint x="1570" y="615"/><mxPoint x="1465" y="615"/></Array></mxGeometry></mxCell><mxCell id="ZbwaUMLBzmyROPCRSQ0a-101" style="edgeStyle=orthogonalEdgeStyle;rounded=0;orthogonalLoop=1;jettySize=auto;html=1;dashed=1;dashPattern=8 8;endSize=12;endArrow=none;endFill=0;startArrow=open;startFill=0;startSize=12;" parent="1" source="ZbwaUMLBzmyROPCRSQ0a-14" target="ZbwaUMLBzmyROPCRSQ0a-80" edge="1"><mxGeometry relative="1" as="geometry"><Array as="points"><mxPoint x="1631" y="971"/><mxPoint x="720" y="971"/></Array></mxGeometry></mxCell><mxCell id="ZbwaUMLBzmyROPCRSQ0a-14" value="TransportTruck" style="swimlane;fontStyle=1;align=center;verticalAlign=top;childLayout=stackLayout;horizontal=1;startSize=26;horizontalStack=0;resizeParent=1;resizeParentMax=0;resizeLast=0;collapsible=1;marginBottom=0;whiteSpace=wrap;html=1;labelBackgroundColor=none;" parent="1" vertex="1"><mxGeometry x="1530" y="690" width="190" height="200" as="geometry"><mxRectangle x="1145" y="437" width="90" height="30" as="alternateBounds"/></mxGeometry></mxCell><mxCell id="ZbwaUMLBzmyROPCRSQ0a-15" value="- ramp: Ramp&lt;br&gt;-&amp;nbsp;transportedCars:&amp;nbsp;Storage&amp;lt;Cars&amp;gt;&lt;br&gt;-&amp;nbsp;maxLoadWeight: int" style="text;align=left;verticalAlign=top;spacingLeft=4;spacingRight=4;overflow=hidden;rotatable=0;points=[[0,0.5],[1,0.5]];portConstraint=eastwest;whiteSpace=wrap;html=1;labelBackgroundColor=none;" parent="ZbwaUMLBzmyROPCRSQ0a-14" vertex="1"><mxGeometry y="26" width="190" height="54" as="geometry"/></mxCell><mxCell id="ZbwaUMLBzmyROPCRSQ0a-16" value="" style="line;strokeWidth=1;align=left;verticalAlign=middle;spacingTop=-1;spacingLeft=3;spacingRight=3;rotatable=0;labelPosition=right;points=[];portConstraint=eastwest;labelBackgroundColor=none;" parent="ZbwaUMLBzmyROPCRSQ0a-14" vertex="1"><mxGeometry y="80" width="190" height="8" as="geometry"/></mxCell><mxCell id="ZbwaUMLBzmyROPCRSQ0a-17" value="+ TransportTruck():&amp;nbsp;&lt;br&gt;+ speedfactor(): double&lt;br&gt;+ raiseBed: void&lt;br&gt;+ lowerBed: void&lt;br&gt;+ loadCar: void&lt;br&gt;+ unloadCar: void&lt;br&gt;+ move(): void" style="text;align=left;verticalAlign=top;spacingLeft=4;spacingRight=4;overflow=hidden;rotatable=0;points=[[0,0.5],[1,0.5]];portConstraint=eastwest;whiteSpace=wrap;html=1;labelBackgroundColor=none;" parent="ZbwaUMLBzmyROPCRSQ0a-14" vertex="1"><mxGeometry y="88" width="190" height="112" as="geometry"/></mxCell><mxCell id="ZbwaUMLBzmyROPCRSQ0a-27" style="edgeStyle=orthogonalEdgeStyle;rounded=0;orthogonalLoop=1;jettySize=auto;html=1;endSize=12;endArrow=block;endFill=0;" parent="1" source="ZbwaUMLBzmyROPCRSQ0a-23" target="8SbexDcq0FFK5E7nXvhd-25" edge="1"><mxGeometry relative="1" as="geometry"><Array as="points"><mxPoint x="1973" y="195"/></Array></mxGeometry></mxCell><mxCell id="ZbwaUMLBzmyROPCRSQ0a-23" value="Workshop" style="swimlane;fontStyle=1;align=center;verticalAlign=top;childLayout=stackLayout;horizontal=1;startSize=26;horizontalStack=0;resizeParent=1;resizeParentMax=0;resizeLast=0;collapsible=1;marginBottom=0;whiteSpace=wrap;html=1;labelBackgroundColor=none;" parent="1" vertex="1"><mxGeometry x="1878" y="370" width="190" height="130" as="geometry"><mxRectangle x="1145" y="437" width="90" height="30" as="alternateBounds"/></mxGeometry></mxCell><mxCell id="ZbwaUMLBzmyROPCRSQ0a-24" value="-&amp;nbsp;StoredCars: Storage&amp;lt;T&amp;gt;" style="text;align=left;verticalAlign=top;spacingLeft=4;spacingRight=4;overflow=hidden;rotatable=0;points=[[0,0.5],[1,0.5]];portConstraint=eastwest;whiteSpace=wrap;html=1;labelBackgroundColor=none;" parent="ZbwaUMLBzmyROPCRSQ0a-23" vertex="1"><mxGeometry y="26" width="190" height="34" as="geometry"/></mxCell><mxCell id="ZbwaUMLBzmyROPCRSQ0a-25" value="" style="line;strokeWidth=1;align=left;verticalAlign=middle;spacingTop=-1;spacingLeft=3;spacingRight=3;rotatable=0;labelPosition=right;points=[];portConstraint=eastwest;labelBackgroundColor=none;" parent="ZbwaUMLBzmyROPCRSQ0a-23" vertex="1"><mxGeometry y="60" width="190" height="8" as="geometry"/></mxCell><mxCell id="ZbwaUMLBzmyROPCRSQ0a-26" value="Workshop():&lt;br&gt;loadCar(T car): void&lt;br&gt;unloadCar(T car): void" style="text;align=left;verticalAlign=top;spacingLeft=4;spacingRight=4;overflow=hidden;rotatable=0;points=[[0,0.5],[1,0.5]];portConstraint=eastwest;whiteSpace=wrap;html=1;labelBackgroundColor=none;" parent="ZbwaUMLBzmyROPCRSQ0a-23" vertex="1"><mxGeometry y="68" width="190" height="62" as="geometry"/></mxCell><mxCell id="ZbwaUMLBzmyROPCRSQ0a-30" value="Ramp" style="swimlane;fontStyle=1;align=center;verticalAlign=top;childLayout=stackLayout;horizontal=1;startSize=26;horizontalStack=0;resizeParent=1;resizeParentMax=0;resizeLast=0;collapsible=1;marginBottom=0;whiteSpace=wrap;html=1;labelBackgroundColor=none;" parent="1" vertex="1"><mxGeometry x="1370" y="390" width="190" height="150" as="geometry"><mxRectangle x="1145" y="437" width="90" height="30" as="alternateBounds"/></mxGeometry></mxCell><mxCell id="ZbwaUMLBzmyROPCRSQ0a-31" value="- rampAngle: int&lt;br&gt;- maxRampAngle: int&lt;br&gt;- isRampUp: boolean" style="text;align=left;verticalAlign=top;spacingLeft=4;spacingRight=4;overflow=hidden;rotatable=0;points=[[0,0.5],[1,0.5]];portConstraint=eastwest;whiteSpace=wrap;html=1;labelBackgroundColor=none;" parent="ZbwaUMLBzmyROPCRSQ0a-30" vertex="1"><mxGeometry y="26" width="190" height="54" as="geometry"/></mxCell><mxCell id="ZbwaUMLBzmyROPCRSQ0a-32" value="" style="line;strokeWidth=1;align=left;verticalAlign=middle;spacingTop=-1;spacingLeft=3;spacingRight=3;rotatable=0;labelPosition=right;points=[];portConstraint=eastwest;labelBackgroundColor=none;" parent="ZbwaUMLBzmyROPCRSQ0a-30" vertex="1"><mxGeometry y="80" width="190" height="8" as="geometry"/></mxCell><mxCell id="ZbwaUMLBzmyROPCRSQ0a-33" value="+ Ramp():&lt;br&gt;+ raiseRamp(Angle): void&lt;br&gt;+ raiseRamp(): void" style="text;align=left;verticalAlign=top;spacingLeft=4;spacingRight=4;overflow=hidden;rotatable=0;points=[[0,0.5],[1,0.5]];portConstraint=eastwest;whiteSpace=wrap;html=1;labelBackgroundColor=none;" parent="ZbwaUMLBzmyROPCRSQ0a-30" vertex="1"><mxGeometry y="88" width="190" height="62" as="geometry"/></mxCell><mxCell id="ZbwaUMLBzmyROPCRSQ0a-36" value="&lt;div align=&quot;center&quot;&gt;&lt;b&gt;&lt;br&gt;&lt;/b&gt;&lt;/div&gt;&lt;b&gt;JFrame&lt;/b&gt;" style="verticalAlign=top;align=center;overflow=fill;fontSize=12;fontFamily=Helvetica;html=1;whiteSpace=wrap;labelBackgroundColor=none;" parent="1" vertex="1"><mxGeometry x="255" y="255" width="110" height="45" as="geometry"/></mxCell><mxCell id="ZbwaUMLBzmyROPCRSQ0a-37" value="&lt;p style=&quot;margin:0px;margin-top:4px;text-align:center;&quot;&gt;&lt;br&gt;&lt;b&gt;Jpanel&lt;/b&gt;&lt;/p&gt;" style="verticalAlign=top;align=left;overflow=fill;fontSize=12;fontFamily=Helvetica;html=1;whiteSpace=wrap;labelBackgroundColor=none;" parent="1" vertex="1"><mxGeometry x="25" y="255" width="100" height="45" as="geometry"/></mxCell><mxCell id="ZbwaUMLBzmyROPCRSQ0a-38" value="&lt;div&gt;«interface»&lt;/div&gt;&lt;div&gt;&lt;b&gt;ActionListener&lt;/b&gt;&lt;/div&gt;" style="html=1;whiteSpace=wrap;labelBackgroundColor=none;" parent="1" vertex="1"><mxGeometry x="640" y="190" width="110" height="50" as="geometry"/></mxCell><mxCell id="ZbwaUMLBzmyROPCRSQ0a-42" style="edgeStyle=orthogonalEdgeStyle;rounded=0;orthogonalLoop=1;jettySize=auto;html=1;endSize=12;endArrow=block;endFill=0;dashed=1;dashPattern=8 8;" parent="1" source="ZbwaUMLBzmyROPCRSQ0a-39" target="ZbwaUMLBzmyROPCRSQ0a-38" edge="1"><mxGeometry relative="1" as="geometry"/></mxCell><mxCell id="ZbwaUMLBzmyROPCRSQ0a-39" value="TimerListener" style="swimlane;fontStyle=1;align=center;verticalAlign=top;childLayout=stackLayout;horizontal=1;startSize=26;horizontalStack=0;resizeParent=1;resizeParentMax=0;resizeLast=0;collapsible=1;marginBottom=0;whiteSpace=wrap;html=1;labelBackgroundColor=none;" parent="1" vertex="1"><mxGeometry x="615" y="310" width="160" height="50" as="geometry"/></mxCell><mxCell id="ZbwaUMLBzmyROPCRSQ0a-40" value="" style="line;strokeWidth=1;align=left;verticalAlign=middle;spacingTop=-1;spacingLeft=3;spacingRight=3;rotatable=0;labelPosition=right;points=[];portConstraint=eastwest;labelBackgroundColor=none;" parent="ZbwaUMLBzmyROPCRSQ0a-39" vertex="1"><mxGeometry y="26" width="160" height="24" as="geometry"/></mxCell><mxCell id="ZbwaUMLBzmyROPCRSQ0a-41" value="+ method(type): type" style="text;strokeColor=none;fillColor=none;align=left;verticalAlign=top;spacingLeft=4;spacingRight=4;overflow=hidden;rotatable=0;points=[[0,0.5],[1,0.5]];portConstraint=eastwest;whiteSpace=wrap;html=1;fontColor=#393C56;labelBackgroundColor=none;" parent="ZbwaUMLBzmyROPCRSQ0a-39" vertex="1"><mxGeometry y="50" width="160" as="geometry"/></mxCell><mxCell id="ZbwaUMLBzmyROPCRSQ0a-59" style="edgeStyle=orthogonalEdgeStyle;rounded=0;orthogonalLoop=1;jettySize=auto;html=1;endSize=12;endArrow=open;endFill=0;" parent="1" source="ZbwaUMLBzmyROPCRSQ0a-47" target="ZbwaUMLBzmyROPCRSQ0a-39" edge="1"><mxGeometry relative="1" as="geometry"/></mxCell><mxCell id="ZbwaUMLBzmyROPCRSQ0a-62" style="edgeStyle=orthogonalEdgeStyle;rounded=0;orthogonalLoop=1;jettySize=auto;html=1;endSize=12;endArrow=open;endFill=0;" parent="1" source="ZbwaUMLBzmyROPCRSQ0a-47" target="ZbwaUMLBzmyROPCRSQ0a-51" edge="1"><mxGeometry relative="1" as="geometry"><Array as="points"><mxPoint x="550" y="460"/><mxPoint x="550" y="460"/></Array></mxGeometry></mxCell><mxCell id="ZbwaUMLBzmyROPCRSQ0a-68" style="edgeStyle=orthogonalEdgeStyle;rounded=0;orthogonalLoop=1;jettySize=auto;html=1;endSize=12;endArrow=open;endFill=0;dashed=1;dashPattern=8 8;" parent="1" source="ZbwaUMLBzmyROPCRSQ0a-80" target="ZbwaUMLBzmyROPCRSQ0a-1" edge="1"><mxGeometry relative="1" as="geometry"><Array as="points"><mxPoint x="756" y="940"/><mxPoint x="985" y="940"/></Array></mxGeometry></mxCell><mxCell id="ZbwaUMLBzmyROPCRSQ0a-69" style="edgeStyle=orthogonalEdgeStyle;rounded=0;orthogonalLoop=1;jettySize=auto;html=1;endSize=12;endArrow=open;endFill=0;dashed=1;dashPattern=8 8;" parent="1" source="ZbwaUMLBzmyROPCRSQ0a-80" target="ZbwaUMLBzmyROPCRSQ0a-5" edge="1"><mxGeometry relative="1" as="geometry"><Array as="points"><mxPoint x="737" y="950"/><mxPoint x="1205" y="950"/></Array></mxGeometry></mxCell><mxCell id="ZbwaUMLBzmyROPCRSQ0a-70" style="edgeStyle=orthogonalEdgeStyle;rounded=0;orthogonalLoop=1;jettySize=auto;html=1;endSize=12;endArrow=open;endFill=0;dashed=1;dashPattern=8 8;" parent="1" source="ZbwaUMLBzmyROPCRSQ0a-80" target="ZbwaUMLBzmyROPCRSQ0a-10" edge="1"><mxGeometry relative="1" as="geometry"><Array as="points"><mxPoint x="699" y="961"/><mxPoint x="1416" y="961"/></Array></mxGeometry></mxCell><mxCell id="ZbwaUMLBzmyROPCRSQ0a-99" style="edgeStyle=orthogonalEdgeStyle;rounded=0;orthogonalLoop=1;jettySize=auto;html=1;dashed=1;dashPattern=8 8;endArrow=open;endFill=0;endSize=12;" parent="1" source="ZbwaUMLBzmyROPCRSQ0a-47" target="8SbexDcq0FFK5E7nXvhd-32" edge="1"><mxGeometry relative="1" as="geometry"/></mxCell><mxCell id="ZbwaUMLBzmyROPCRSQ0a-106" style="edgeStyle=orthogonalEdgeStyle;rounded=0;orthogonalLoop=1;jettySize=auto;html=1;endSize=12;endArrow=open;endFill=0;" parent="1" source="ZbwaUMLBzmyROPCRSQ0a-47" target="ZbwaUMLBzmyROPCRSQ0a-74" edge="1"><mxGeometry relative="1" as="geometry"><Array as="points"><mxPoint x="643" y="382"/><mxPoint x="540" y="382"/></Array></mxGeometry></mxCell><mxCell id="3" style="edgeStyle=orthogonalEdgeStyle;rounded=0;orthogonalLoop=1;jettySize=auto;html=1;endArrow=open;endFill=0;endSize=12;" edge="1" parent="1" source="ZbwaUMLBzmyROPCRSQ0a-47" target="ZbwaUMLBzmyROPCRSQ0a-76"><mxGeometry relative="1" as="geometry"><Array as="points"><mxPoint x="686" y="619"/><mxPoint x="189" y="619"/></Array></mxGeometry></mxCell><mxCell id="ZbwaUMLBzmyROPCRSQ0a-47" value="CarController" style="swimlane;fontStyle=1;align=center;verticalAlign=top;childLayout=stackLayout;horizontal=1;startSize=26;horizontalStack=0;resizeParent=1;resizeParentMax=0;resizeLast=0;collapsible=1;marginBottom=0;whiteSpace=wrap;html=1;labelBackgroundColor=none;" parent="1" vertex="1"><mxGeometry x="600" y="415" width="300" height="150" as="geometry"><mxRectangle x="1145" y="437" width="90" height="30" as="alternateBounds"/></mxGeometry></mxCell><mxCell id="ZbwaUMLBzmyROPCRSQ0a-48" value="- Timer(delay, TimerListener())&lt;br&gt;+ frame: CarView&lt;br&gt;+ carPoints: Hashmap&amp;lt;Cars, Point&amp;gt;" style="text;align=left;verticalAlign=top;spacingLeft=4;spacingRight=4;overflow=hidden;rotatable=0;points=[[0,0.5],[1,0.5]];portConstraint=eastwest;whiteSpace=wrap;html=1;labelBackgroundColor=none;" parent="ZbwaUMLBzmyROPCRSQ0a-47" vertex="1"><mxGeometry y="26" width="300" height="54" as="geometry"/></mxCell><mxCell id="ZbwaUMLBzmyROPCRSQ0a-49" value="" style="line;strokeWidth=1;align=left;verticalAlign=middle;spacingTop=-1;spacingLeft=3;spacingRight=3;rotatable=0;labelPosition=right;points=[];portConstraint=eastwest;labelBackgroundColor=none;" parent="ZbwaUMLBzmyROPCRSQ0a-47" vertex="1"><mxGeometry y="80" width="300" height="8" as="geometry"/></mxCell><mxCell id="ZbwaUMLBzmyROPCRSQ0a-50" value="- changeDirectionIfCarIsOutOfBounds(car): void&lt;br&gt;-&amp;nbsp;turnCarAroundAndChangeSpeedToLowest(car): void&lt;br&gt;+ actionPerformed(): void" style="text;align=left;verticalAlign=top;spacingLeft=4;spacingRight=4;overflow=hidden;rotatable=0;points=[[0,0.5],[1,0.5]];portConstraint=eastwest;whiteSpace=wrap;html=1;labelBackgroundColor=none;" parent="ZbwaUMLBzmyROPCRSQ0a-47" vertex="1"><mxGeometry y="88" width="300" height="62" as="geometry"/></mxCell><mxCell id="ZbwaUMLBzmyROPCRSQ0a-63" style="edgeStyle=orthogonalEdgeStyle;rounded=0;orthogonalLoop=1;jettySize=auto;html=1;endSize=12;endArrow=open;endFill=0;" parent="1" source="ZbwaUMLBzmyROPCRSQ0a-51" target="ZbwaUMLBzmyROPCRSQ0a-95" edge="1"><mxGeometry relative="1" as="geometry"><Array as="points"/></mxGeometry></mxCell><mxCell id="ZbwaUMLBzmyROPCRSQ0a-64" style="edgeStyle=orthogonalEdgeStyle;rounded=0;orthogonalLoop=1;jettySize=auto;html=1;endSize=12;endArrow=open;endFill=0;" parent="1" source="ZbwaUMLBzmyROPCRSQ0a-51" target="ZbwaUMLBzmyROPCRSQ0a-36" edge="1"><mxGeometry relative="1" as="geometry"><Array as="points"><mxPoint x="310" y="397"/><mxPoint x="310" y="397"/></Array></mxGeometry></mxCell><mxCell id="ZbwaUMLBzmyROPCRSQ0a-66" style="edgeStyle=orthogonalEdgeStyle;rounded=0;orthogonalLoop=1;jettySize=auto;html=1;entryX=0.75;entryY=1;entryDx=0;entryDy=0;endSize=12;endArrow=open;endFill=0;dashed=1;dashPattern=8 8;" parent="1" source="ZbwaUMLBzmyROPCRSQ0a-51" target="ZbwaUMLBzmyROPCRSQ0a-37" edge="1"><mxGeometry relative="1" as="geometry"><Array as="points"><mxPoint x="320" y="360"/><mxPoint x="100" y="360"/></Array></mxGeometry></mxCell><mxCell id="ZbwaUMLBzmyROPCRSQ0a-100" style="edgeStyle=orthogonalEdgeStyle;rounded=0;orthogonalLoop=1;jettySize=auto;html=1;dashed=1;dashPattern=8 8;endArrow=open;endFill=0;endSize=12;" parent="1" source="ZbwaUMLBzmyROPCRSQ0a-95" target="8SbexDcq0FFK5E7nXvhd-32" edge="1"><mxGeometry relative="1" as="geometry"><Array as="points"><mxPoint x="128" y="640"/><mxPoint x="969" y="640"/><mxPoint x="969" y="531"/></Array></mxGeometry></mxCell><mxCell id="ZbwaUMLBzmyROPCRSQ0a-51" value="CarView" style="swimlane;fontStyle=1;align=center;verticalAlign=top;childLayout=stackLayout;horizontal=1;startSize=26;horizontalStack=0;resizeParent=1;resizeParentMax=0;resizeLast=0;collapsible=1;marginBottom=0;whiteSpace=wrap;html=1;labelBackgroundColor=none;" parent="1" vertex="1"><mxGeometry x="260" y="420" width="230" height="120" as="geometry"><mxRectangle x="1145" y="437" width="90" height="30" as="alternateBounds"/></mxGeometry></mxCell><mxCell id="ZbwaUMLBzmyROPCRSQ0a-52" value="+ CarC: CarController&lt;br&gt;+ draw: DrawPanel" style="text;align=left;verticalAlign=top;spacingLeft=4;spacingRight=4;overflow=hidden;rotatable=0;points=[[0,0.5],[1,0.5]];portConstraint=eastwest;whiteSpace=wrap;html=1;labelBackgroundColor=none;" parent="ZbwaUMLBzmyROPCRSQ0a-51" vertex="1"><mxGeometry y="26" width="230" height="44" as="geometry"/></mxCell><mxCell id="ZbwaUMLBzmyROPCRSQ0a-53" value="" style="line;strokeWidth=1;align=left;verticalAlign=middle;spacingTop=-1;spacingLeft=3;spacingRight=3;rotatable=0;labelPosition=right;points=[];portConstraint=eastwest;labelBackgroundColor=none;" parent="ZbwaUMLBzmyROPCRSQ0a-51" vertex="1"><mxGeometry y="70" width="230" height="8" as="geometry"/></mxCell><mxCell id="ZbwaUMLBzmyROPCRSQ0a-54" value="+ CarView(frameName, CarContoller cc)&lt;br&gt;+ initComponents(title): void" style="text;align=left;verticalAlign=top;spacingLeft=4;spacingRight=4;overflow=hidden;rotatable=0;points=[[0,0.5],[1,0.5]];portConstraint=eastwest;whiteSpace=wrap;html=1;labelBackgroundColor=none;" parent="ZbwaUMLBzmyROPCRSQ0a-51" vertex="1"><mxGeometry y="78" width="230" height="42" as="geometry"/></mxCell><mxCell id="ZbwaUMLBzmyROPCRSQ0a-65" style="edgeStyle=orthogonalEdgeStyle;rounded=0;orthogonalLoop=1;jettySize=auto;html=1;endSize=12;endArrow=block;endFill=0;" parent="1" source="ZbwaUMLBzmyROPCRSQ0a-95" target="ZbwaUMLBzmyROPCRSQ0a-37" edge="1"><mxGeometry relative="1" as="geometry"/></mxCell><mxCell id="ZbwaUMLBzmyROPCRSQ0a-74" value="&lt;p style=&quot;margin:0px;margin-top:4px;text-align:center;&quot;&gt;&lt;br&gt;&lt;b&gt;Hashmap&lt;/b&gt;&lt;/p&gt;" style="verticalAlign=top;align=left;overflow=fill;fontSize=12;fontFamily=Helvetica;html=1;whiteSpace=wrap;labelBackgroundColor=none;" parent="1" vertex="1"><mxGeometry x="470" y="252" width="100" height="45" as="geometry"/></mxCell><mxCell id="2" style="edgeStyle=orthogonalEdgeStyle;rounded=0;orthogonalLoop=1;jettySize=auto;html=1;entryX=0.47;entryY=1.009;entryDx=0;entryDy=0;entryPerimeter=0;endSize=12;endArrow=open;endFill=0;" edge="1" parent="1" source="ZbwaUMLBzmyROPCRSQ0a-76" target="ZbwaUMLBzmyROPCRSQ0a-50"><mxGeometry relative="1" as="geometry"/></mxCell><mxCell id="ZbwaUMLBzmyROPCRSQ0a-76" value="Game" style="swimlane;fontStyle=1;align=center;verticalAlign=top;childLayout=stackLayout;horizontal=1;startSize=26;horizontalStack=0;resizeParent=1;resizeParentMax=0;resizeLast=0;collapsible=1;marginBottom=0;whiteSpace=wrap;html=1;labelBackgroundColor=none;" parent="1" vertex="1"><mxGeometry x="107" y="728" width="226" height="130" as="geometry"><mxRectangle x="1145" y="437" width="90" height="30" as="alternateBounds"/></mxGeometry></mxCell><mxCell id="ZbwaUMLBzmyROPCRSQ0a-77" value="+ cars: Arraylist&amp;lt;Cars&amp;gt;" style="text;align=left;verticalAlign=top;spacingLeft=4;spacingRight=4;overflow=hidden;rotatable=0;points=[[0,0.5],[1,0.5]];portConstraint=eastwest;whiteSpace=wrap;html=1;labelBackgroundColor=none;fillColor=default;strokeColor=none;" parent="ZbwaUMLBzmyROPCRSQ0a-76" vertex="1"><mxGeometry y="26" width="226" height="34" as="geometry"/></mxCell><mxCell id="ZbwaUMLBzmyROPCRSQ0a-78" value="" style="line;strokeWidth=1;align=left;verticalAlign=middle;spacingTop=-1;spacingLeft=3;spacingRight=3;rotatable=0;labelPosition=right;points=[];portConstraint=eastwest;labelBackgroundColor=none;" parent="ZbwaUMLBzmyROPCRSQ0a-76" vertex="1"><mxGeometry y="60" width="226" height="8" as="geometry"/></mxCell><mxCell id="ZbwaUMLBzmyROPCRSQ0a-79" value="+ Main():&lt;br&gt;+ CreateCar():" style="text;align=left;verticalAlign=top;spacingLeft=4;spacingRight=4;overflow=hidden;rotatable=0;points=[[0,0.5],[1,0.5]];portConstraint=eastwest;whiteSpace=wrap;html=1;labelBackgroundColor=none;fillColor=none;strokeColor=none;" parent="ZbwaUMLBzmyROPCRSQ0a-76" vertex="1"><mxGeometry y="68" width="226" height="62" as="geometry"/></mxCell><mxCell id="ZbwaUMLBzmyROPCRSQ0a-102" style="edgeStyle=orthogonalEdgeStyle;rounded=0;orthogonalLoop=1;jettySize=auto;html=1;dashed=1;dashPattern=8 8;endSize=12;endArrow=none;endFill=0;startArrow=open;startFill=0;" parent="1" source="ZbwaUMLBzmyROPCRSQ0a-80" target="ZbwaUMLBzmyROPCRSQ0a-76" edge="1"><mxGeometry relative="1" as="geometry"><Array as="points"><mxPoint x="370" y="790"/><mxPoint x="370" y="790"/></Array></mxGeometry></mxCell><mxCell id="ZbwaUMLBzmyROPCRSQ0a-80" value="CarFactory" style="swimlane;fontStyle=1;align=center;verticalAlign=top;childLayout=stackLayout;horizontal=1;startSize=26;horizontalStack=0;resizeParent=1;resizeParentMax=0;resizeLast=0;collapsible=1;marginBottom=0;whiteSpace=wrap;html=1;labelBackgroundColor=none;" parent="1" vertex="1"><mxGeometry x="518" y="724" width="295" height="119" as="geometry"><mxRectangle x="1145" y="437" width="90" height="30" as="alternateBounds"/></mxGeometry></mxCell><mxCell id="ZbwaUMLBzmyROPCRSQ0a-81" value="" style="text;align=left;verticalAlign=top;spacingLeft=4;spacingRight=4;overflow=hidden;rotatable=0;points=[[0,0.5],[1,0.5]];portConstraint=eastwest;whiteSpace=wrap;html=1;labelBackgroundColor=none;fillColor=default;strokeColor=none;" parent="ZbwaUMLBzmyROPCRSQ0a-80" vertex="1"><mxGeometry y="26" width="295" height="1" as="geometry"/></mxCell><mxCell id="ZbwaUMLBzmyROPCRSQ0a-82" value="" style="line;strokeWidth=1;align=left;verticalAlign=middle;spacingTop=-1;spacingLeft=3;spacingRight=3;rotatable=0;labelPosition=right;points=[];portConstraint=eastwest;labelBackgroundColor=none;" parent="ZbwaUMLBzmyROPCRSQ0a-80" vertex="1"><mxGeometry y="27" width="295" height="15" as="geometry"/></mxCell><mxCell id="ZbwaUMLBzmyROPCRSQ0a-83" value="+ CreateVolvo240(): Cars&lt;br&gt;+ CreateSaab95(): Cars&lt;br&gt;+ Create Scania(): Cars&lt;br&gt;+ Create TransportTruck(); Cars" style="text;align=left;verticalAlign=top;spacingLeft=4;spacingRight=4;overflow=hidden;rotatable=0;points=[[0,0.5],[1,0.5]];portConstraint=eastwest;whiteSpace=wrap;html=1;labelBackgroundColor=none;fillColor=default;strokeColor=none;" parent="ZbwaUMLBzmyROPCRSQ0a-80" vertex="1"><mxGeometry y="42" width="295" height="77" as="geometry"/></mxCell><mxCell id="ZbwaUMLBzmyROPCRSQ0a-105" style="edgeStyle=orthogonalEdgeStyle;rounded=0;orthogonalLoop=1;jettySize=auto;html=1;endSize=12;endArrow=open;endFill=0;" parent="1" source="ZbwaUMLBzmyROPCRSQ0a-95" target="ZbwaUMLBzmyROPCRSQ0a-74" edge="1"><mxGeometry relative="1" as="geometry"><Array as="points"><mxPoint x="142" y="393"/><mxPoint x="520" y="393"/></Array></mxGeometry></mxCell><mxCell id="ZbwaUMLBzmyROPCRSQ0a-95" value="DrawPanel" style="swimlane;fontStyle=1;align=center;verticalAlign=top;childLayout=stackLayout;horizontal=1;startSize=26;horizontalStack=0;resizeParent=1;resizeParentMax=0;resizeLast=0;collapsible=1;marginBottom=0;whiteSpace=wrap;html=1;labelBackgroundColor=none;" parent="1" vertex="1"><mxGeometry x="-53" y="425.5" width="256" height="109" as="geometry"><mxRectangle x="1145" y="437" width="90" height="30" as="alternateBounds"/></mxGeometry></mxCell><mxCell id="ZbwaUMLBzmyROPCRSQ0a-96" value="+ carImages: Hashmap&amp;lt;Cars, BufferdImage&amp;gt;" style="text;align=left;verticalAlign=top;spacingLeft=4;spacingRight=4;overflow=hidden;rotatable=0;points=[[0,0.5],[1,0.5]];portConstraint=eastwest;whiteSpace=wrap;html=1;labelBackgroundColor=none;" parent="ZbwaUMLBzmyROPCRSQ0a-95" vertex="1"><mxGeometry y="26" width="256" height="33" as="geometry"/></mxCell><mxCell id="ZbwaUMLBzmyROPCRSQ0a-97" value="" style="line;strokeWidth=1;align=left;verticalAlign=middle;spacingTop=-1;spacingLeft=3;spacingRight=3;rotatable=0;labelPosition=right;points=[];portConstraint=eastwest;labelBackgroundColor=none;" parent="ZbwaUMLBzmyROPCRSQ0a-95" vertex="1"><mxGeometry y="59" width="256" height="8" as="geometry"/></mxCell><mxCell id="ZbwaUMLBzmyROPCRSQ0a-98" value="+ moveit(car, x, y): void&lt;br style=&quot;border-color: var(--border-color);&quot;&gt;+ drawPanel(x, y):&amp;nbsp;" style="text;align=left;verticalAlign=top;spacingLeft=4;spacingRight=4;overflow=hidden;rotatable=0;points=[[0,0.5],[1,0.5]];portConstraint=eastwest;whiteSpace=wrap;html=1;labelBackgroundColor=none;" parent="ZbwaUMLBzmyROPCRSQ0a-95" vertex="1"><mxGeometry y="67" width="256" height="42" as="geometry"/></mxCell></root></mxGraphModel></diagram></mxfile>